<svg width="19" height="19" viewBox="0 0 19 19" fill="none" xmlns="http://www.w3.org/2000/svg">
<path d="M10.0037 1.00988C8.42061 1.00821 6.87259 1.47602 5.55539 2.35415C4.23819 3.23228 3.21096 4.48128 2.6036 5.94321C1.99625 7.40515 1.83605 9.01435 2.14326 10.5673C2.45047 12.1203 3.2113 13.5473 4.32952 14.6679C5.44775 15.7885 6.87316 16.5523 8.42549 16.8628C9.97782 17.1733 11.5874 17.0164 13.0506 16.4122C14.5138 15.8079 15.7649 14.7833 16.6458 13.4679C17.5267 12.1526 17.9978 10.6055 17.9994 9.02246C18.0017 6.89962 17.1605 4.86284 15.661 3.36019C14.1615 1.85754 12.1265 1.01211 10.0037 1.00988ZM9.98791 16.0177C8.60272 16.0162 7.24907 15.6041 6.09814 14.8333C4.9472 14.0625 4.05067 12.9677 3.52193 11.6874C2.99318 10.4071 2.85597 8.99878 3.12763 7.64049C3.3993 6.28219 4.06764 5.03496 5.04815 4.05652C6.02866 3.07807 7.27729 2.41235 8.63615 2.14354C9.99501 1.87473 11.4031 2.0149 12.6823 2.54634C13.9614 3.07777 15.0543 3.9766 15.8227 5.12915C16.591 6.2817 17.0004 7.63622 16.9989 9.02141C16.997 10.8789 16.2572 12.6595 14.9424 13.9716C13.6276 15.2836 11.8454 16.0197 9.98791 16.0177Z" fill="url(#paint0_linear_392_468)"/>
<path d="M15.0009 6.068C14.9073 5.97472 14.7806 5.92229 14.6484 5.92215C14.5163 5.92201 14.3894 5.97418 14.2956 6.06725L8.73688 11.5893L5.73847 8.58458C5.64702 8.48564 5.52002 8.42708 5.3854 8.42177C5.25078 8.41647 5.11956 8.46487 5.02062 8.55631C4.92168 8.64775 4.86312 8.77476 4.85782 8.90938C4.85252 9.044 4.90091 9.17522 4.99235 9.27416L8.73538 13.015L15.0002 6.77837C15.0471 6.73191 15.0844 6.67662 15.1099 6.61568C15.1353 6.55475 15.1485 6.48938 15.1486 6.42334C15.1486 6.3573 15.1356 6.29189 15.1103 6.23091C15.0849 6.16992 15.0478 6.11455 15.0009 6.068Z" fill="url(#paint1_linear_392_468)"/>
<defs>
<linearGradient id="paint0_linear_392_468" x1="10.0037" y1="1.00988" x2="9.98686" y2="17.0182" gradientUnits="userSpaceOnUse">
<stop stop-color="#D350FF"/>
<stop offset="0.5" stop-color="#9344FF"/>
<stop offset="1" stop-color="#FEC68B"/>
</linearGradient>
<linearGradient id="paint1_linear_392_468" x1="10.0048" y1="5.91727" x2="9.99738" y2="13.0164" gradientUnits="userSpaceOnUse">
<stop stop-color="#D350FF"/>
<stop offset="0.5" stop-color="#9344FF"/>
<stop offset="1" stop-color="#FEC68B"/>
</linearGradient>
</defs>
</svg>
